PathFileType	4	(X/Y/Z)	/Users/itak/Documents/Research/Walk-IL/dataset/trc/00407_00012.trc
DataRate	CameraRate	NumFrames	NumMarkers	Units	OrigDataRate	OrigDataStartFrame	OrigNumFrames
100.000000	100.000000	4	55	mm	100.000000	404	647
Frame#	Time	RPSI			LPSI			L3			STRN			T10			C7			CLAV			RBAK			LBAK			LSHO			LUPA			LAEL			LAOL			LWTS			LWPS			LFRA			LIFD			LHPS			LHTS			RSHO			RUPA			RAEL			RAOL			RWTS			RWPS			RFRA			RIFD			RHTS			RHPS			RBHD			LFHD			RFHD			LBHD			LHIP			RHIP			RASI			LASI			LKNE			LTHI			LANK			LTIP			LTOE			LMT1			LMT5			LHEE			RKNE			RTHI			RANK			RTIP			RTOE			RMT1			RMT5			RHEE			*53			*54			
		X1	Y1	Z1	X2	Y2	Z2	X3	Y3	Z3	X4	Y4	Z4	X5	Y5	Z5	X6	Y6	Z6	X7	Y7	Z7	X8	Y8	Z8	X9	Y9	Z9	X10	Y10	Z10	X11	Y11	Z11	X12	Y12	Z12	X13	Y13	Z13	X14	Y14	Z14	X15	Y15	Z15	X16	Y16	Z16	X17	Y17	Z17	X18	Y18	Z18	X19	Y19	Z19	X20	Y20	Z20	X21	Y21	Z21	X22	Y22	Z22	X23	Y23	Z23	X24	Y24	Z24	X25	Y25	Z25	X26	Y26	Z26	X27	Y27	Z27	X28	Y28	Z28	X29	Y29	Z29	X30	Y30	Z30	X31	Y31	Z31	X32	Y32	Z32	X33	Y33	Z33	X34	Y34	Z34	X35	Y35	Z35	X36	Y36	Z36	X37	Y37	Z37	X38	Y38	Z38	X39	Y39	Z39	X40	Y40	Z40	X41	Y41	Z41	X42	Y42	Z42	X43	Y43	Z43	X44	Y44	Z44	X45	Y45	Z45	X46	Y46	Z46	X47	Y47	Z47	X48	Y48	Z48	X49	Y49	Z49	X50	Y50	Z50	X51	Y51	Z51	X52	Y52	Z52	X53	Y53	Z53	X54	Y54	Z54	X55	Y55	Z55	

405	4.04	-223.4837646484375	931.9894409179688	-744.62109375	-222.4456176757812	926.1190795898438	-878.0724487304688	-230.3728332519531	1008.62255859375	-797.3164672851562	8.708929061889648	1166.29150390625	-768.6687622070312	-243.4522399902344	1114.365600585938	-792.4970703125	-202.4453582763672	1362.189208984375	-788.8980712890625	-46.84062194824219	1284.029296875	-770.3115844726562	-250.7069854736328	1216.098388671875	-729.4004516601562	-209.4969635009766	1327.816040039062	-890.8289794921875	-120.5737457275391	1342.876220703125	-936.924560546875	-166.0201721191406	1230.839721679688	-1004.458984375	-197.4725036621094	1037.9482421875	-1027.632568359375	-243.2684020996094	1025.849609375	-957.2428588867188	-166.3112182617188	804.7783203125	-996.869873046875	-227.0565032958984	811.1116333007812	-1052.599365234375	-212.6258239746094	934.0325317382812	-1039.051147460938	-231.385986328125	637.1454467773438	-997.8721313476562	-242.4756622314453	725.26708984375	-1045.143920898438	-196.2427368164062	698.0526733398438	-1013.870422363281	-162.8282165527344	1341.235107421875	-627.4912109375	-189.6797180175781	1276.994506835938	-571.6265869140625	-204.5821990966797	1015.892761230469	-527.6282348632812	-205.8250579833984	1000.22998046875	-622.5701904296875	14.58209609985352	910.6519165039062	-533.4161376953125	-16.44580459594727	882.9146118164062	-471.7552185058594	-158.7588958740234	972.1318359375	-505.3207092285156	118.8271713256836	774.3279418945312	-502.5525512695312	90.96308898925781	841.8411254882812	-499.3605041503906	41.48229217529297	816.0906982421875	-458.4948120117188	-185.7500915527344	1544.518798828125	-709.0391235351562	-6.486535549163818	1560.52490234375	-798.1268310546875	-55.65766143798828	1559.84423828125	-683.7555541992188	-140.3304443359375	1540.30712890625	-863.954833984375	-127.7154006958008	933.8108520507812	-983.2777099609375	-148.6197662353516	901.3052368164062	-625.6524047851562	-12.21791934967041	911.68359375	-664.9909057617188	-17.39301109313965	939.115478515625	-928.2715454101562	105.1945953369141	485.882080078125	-960.4152221679688	36.42929077148438	607.6819458007812	-974.727294921875	138.9871520996094	35.17496871948242	-983.3402709960938	127.4116973876953	250.9718627929688	-982.6102294921875	315.9649658203125	71.98390960693359	-860.9926147460938	235.423828125	53.72047424316406	-853.4279174804688	262.3137512207031	50.65200042724609	-955.3011474609375	88.4072265625	26.47497940063477	-940.07421875	-202.4827423095703	431.9783935546875	-709.6041259765625	-104.2444229125977	672.80810546875	-650.16943359375	-441.5025939941406	78.44535827636719	-757.264892578125	-250.4341583251953	311.76123046875	-739.0590209960938	-305.0259094238281	36.5554313659668	-877.414794921875	-381.2232055664062	53.61269378662109	-878.4675903320312	-365.5133056640625	47.61845397949219	-780.5343627929688	-526.6602172851562	101.460693359375	-786.3104858398438	nan	nan	nan	nan	nan	nan	
406	4.05	-210.8630676269531	932.4989624023438	-746.6912841796875	-208.7710113525391	927.1217651367188	-880.2724609375	-216.9962768554688	1008.303466796875	-799.1962280273438	20.42034530639648	1166.977172851562	-769.3751831054688	-231.6273498535156	1114.09619140625	-794.5741577148438	-191.4196319580078	1362.199951171875	-791.1470336914062	-35.22312164306641	1284.788208007812	-771.3856811523438	-239.1056518554688	1215.720947265625	-731.93212890625	-197.3649749755859	1327.696899414062	-893.18896484375	-108.1117324829102	1343.380615234375	-938.478515625	-152.0340728759766	1231.120483398438	-1006.681335449219	-181.3642883300781	1037.891723632812	-1030.6416015625	-228.286865234375	1025.375	-961.1231689453125	-148.7946166992188	805.0088500976562	-999.1694946289062	-208.3592071533203	810.894287109375	-1056.260864257812	-195.4022216796875	933.8134155273438	-1042.3662109375	-212.9603881835938	636.2422485351562	-1001.875183105469	-223.1120910644531	724.9572143554688	-1049.478271484375	-176.4489135742188	699.0331420898438	-1017.157653808594	-152.8475799560547	1341.297119140625	-629.409912109375	-180.0247650146484	1276.880737304688	-573.949462890625	-195.5426635742188	1015.76904296875	-530.8534545898438	-195.8978729248047	1000.425415039062	-625.9884033203125	21.16253089904785	904.6763305664062	-534.8497924804688	-11.14589405059814	878.7552490234375	-472.9969482421875	-150.7402191162109	971.0339965820312	-508.1631164550781	120.0025787353516	764.6549682617188	-501.6192321777344	94.78433990478516	833.2379760742188	-499.5730590820312	44.12310409545898	810.1141357421875	-458.5593872070312	-176.1356658935547	1544.813598632812	-710.9718627929688	3.817806482315063	1561.386596679688	-798.4612426757812	-46.27966690063477	1560.401000976562	-684.4680786132812	-129.4139862060547	1540.887084960938	-865.4692993164062	-114.2023696899414	934.2322387695312	-984.6785888671875	-136.8628234863281	901.3358154296875	-627.2483520507812	-0.1905619651079178	911.7315063476562	-665.9347534179688	-3.545773506164551	940.0477294921875	-929.0258178710938	118.9377593994141	486.5992126464844	-957.1950073242188	50.08036041259766	607.8457641601562	-973.0568237304688	140.541748046875	35.83857727050781	-982.9092407226562	136.5267181396484	250.8492126464844	-980.4166870117188	318.6886291503906	63.85700225830078	-857.7661743164062	236.8346710205078	49.1831169128418	-851.57421875	264.3770446777344	47.14313507080078	-953.0735473632812	88.88643646240234	28.34285545349121	-940.3350219726562	-190.4342346191406	432.1219177246094	-711.3507690429688	-92.36989593505859	672.5967407226562	-652.0664672851562	-438.2979125976562	82.63742065429688	-756.9802856445312	-241.0706939697266	312.6581726074219	-739.1508178710938	-305.1401062011719	36.71987152099609	-877.29052734375	-379.3772583007812	55.49990844726562	-878.106201171875	-363.9974975585938	47.47925186157227	-780.1690063476562	-521.8394165039062	109.5725860595703	-786.656982421875	nan	nan	nan	nan	nan	nan	
407	4.06	-198.2248077392578	933.1868286132812	-748.5970458984375	-195.0943145751953	928.4263305664062	-882.2979125976562	-203.4324188232422	1008.356079101562	-800.9970703125	32.14017486572266	1167.999633789062	-769.90771484375	-219.7076263427734	1114.13134765625	-796.6466674804688	-180.3056335449219	1362.522338867188	-793.3988647460938	-23.63254356384277	1285.854370117188	-772.3320922851562	-227.5643615722656	1215.680419921875	-734.5059204101562	-185.0973663330078	1327.925048828125	-895.5325927734375	-95.48683929443359	1344.213989257812	-939.9552612304688	-137.8534545898438	1231.750610351562	-1008.819763183594	-165.0264587402344	1038.190551757812	-1033.53466796875	-212.9716644287109	1025.205444335938	-964.852783203125	-130.7650756835938	805.6486206054688	-1001.528564453125	-189.2596893310547	811.0411987304688	-1059.825317382812	-177.8671875	933.971923828125	-1045.56982421875	-193.4394683837891	635.8193969726562	-1006.042724609375	-203.1794738769531	724.9955444335938	-1053.709350585938	-155.464111328125	700.9740600585938	-1020.806213378906	-142.9243469238281	1341.704467773438	-631.3231201171875	-170.4317626953125	1277.10595703125	-576.2833862304688	-186.4896240234375	1015.976623535156	-534.1551513671875	-185.8482513427734	1000.987670898438	-629.4617309570312	27.29217338562012	898.5609741210938	-536.294921875	-6.289398670196533	874.463134765625	-474.3792419433594	-142.7982482910156	970.1834106445312	-511.0880126953125	120.431266784668	754.9710083007812	-500.9757995605469	98.00051116943359	824.5402221679688	-499.8921508789062	46.16505813598633	804.02587890625	-458.896728515625	-166.4877319335938	1545.3642578125	-712.8082275390625	14.15513896942139	1562.557373046875	-798.6307983398438	-36.87567138671875	1561.2021484375	-685.0516357421875	-118.4238204956055	1541.839599609375	-866.8668823242188	-100.4125289916992	935.0309448242188	-985.8107299804688	-125.2828750610352	901.6761474609375	-628.63134765625	11.70947647094727	912.150146484375	-666.6209716796875	10.4656867980957	941.2391357421875	-929.4724731445312	132.2379760742188	487.3606567382812	-954.389892578125	63.57492828369141	608.3486328125	-971.649169921875	141.8518371582031	36.50121307373047	-982.7320556640625	145.1960144042969	250.8317718505859	-978.781005859375	321.2740478515625	56.90353775024414	-855.5945434570312	238.2180023193359	45.59936141967773	-850.4468383789062	266.0399780273438	44.27991104125977	-951.7578735351562	89.46875	30.04419326782227	-940.7152709960938	-177.268798828125	432.2894592285156	-712.7875366210938	-80.04244232177734	672.5960083007812	-653.7489013671875	-434.4976806640625	87.31057739257812	-756.8597412109375	-230.6785430908203	313.7595520019531	-738.8115234375	-305.1744384765625	36.88833236694336	-877.03955078125	-376.9932556152344	57.46856307983398	-877.7550659179688	-362.4249572753906	47.30072402954102	-779.8607788085938	-515.7861938476562	118.5333557128906	-787.39697265625	nan	nan	nan	nan	nan	nan	
408	4.07	-185.6527557373047	934.013916015625	-750.3641357421875	-181.4954528808594	929.97802734375	-884.1546630859375	-189.8180694580078	1008.7841796875	-802.7335205078125	43.86162948608398	1169.349609375	-770.2305297851562	-207.6752777099609	1114.477172851562	-798.7205810546875	-169.09912109375	1363.1455078125	-795.6568603515625	-12.09112739562988	1287.201171875	-773.12646484375	-216.1107788085938	1215.985595703125	-737.13427734375	-172.6734008789062	1328.48828125	-897.8605346679688	-82.67593383789062	1345.357421875	-941.338134765625	-123.4540176391602	1232.718627929688	-1010.858703613281	-148.4646453857422	1038.847045898438	-1036.301391601562	-197.3320465087891	1025.351196289062	-968.41162109375	-112.2182922363281	806.7138061523438	-1003.973815917969	-169.80322265625	811.5581665039062	-1063.283935546875	-160.0402679443359	934.5182495117188	-1048.651977539062	-172.9160614013672	635.8785400390625	-1010.296203613281	-182.73681640625	725.3953857421875	-1057.799682617188	-133.7130889892578	703.50390625	-1024.63525390625	-133.0949859619141	1342.459228515625	-633.2362670898438	-160.9317932128906	1277.685791015625	-578.6109619140625	-177.4217681884766	1016.528564453125	-537.5400390625	-175.6744689941406	1001.939697265625	-632.9886474609375	32.94920349121094	892.3928833007812	-537.7251586914062	-1.936545133590698	870.0511474609375	-475.91259765625	-134.9429168701172	969.6009521484375	-514.1015014648438	120.1522674560547	745.4022827148438	-500.6456604003906	100.5811233520508	815.8495483398438	-500.3043518066406	47.58359527587891	797.8591918945312	-459.5458984375	-156.8226470947266	1546.137573242188	-714.5567016601562	24.51863288879395	1564.005859375	-798.634765625	-27.45604133605957	1562.219360351562	-685.5066528320312	-107.3514785766602	1543.128784179688	-868.152587890625	-86.45744323730469	936.2008056640625	-986.6700439453125	-113.9603424072266	902.287353515625	-629.816650390625	23.37346076965332	912.9249267578125	-667.0498046875	24.54521942138672	942.666748046875	-929.6176147460938	144.9636993408203	488.044677734375	-952.11962890625	76.9139404296875	609.184326171875	-970.5850830078125	142.9298248291016	37.05885696411133	-982.76123046875	153.2334899902344	250.8426818847656	-977.7033081054688	323.5676574707031	51.2989616394043	-854.3086547851562	239.4877624511719	42.97939300537109	-849.90234375	267.3367919921875	42.06616973876953	-951.190185546875	90.13221740722656	31.45665740966797	-941.174072265625	-162.947265625	432.4214477539062	-713.7936401367188	-67.32205963134766	672.7779541015625	-655.1668701171875	-429.9922485351562	92.48519134521484	-756.929931640625	-219.1536407470703	315.0221252441406	-737.9780883789062	-305.0183715820312	37.01725387573242	-876.6286010742188	-373.9288024902344	59.52433395385742	-877.4169921875	-360.7957458496094	47.16861724853516	-779.621826171875	-508.3340759277344	128.3103790283203	-788.553466796875	nan	nan	nan	nan	nan	nan	
